<svg version="1.0" xmlns="http://www.w3.org/2000/svg" width="512.000000pt" height="512.000000pt" viewBox="0 0 512.000000 512.000000" preserveAspectRatio="xMidYMid meet"><g transform="translate(0.000000,512.000000) scale(0.100000,-0.100000)" fill="#000000" stroke="none"> <path d="M393 5106 c-186 -45 -345 -207 -382 -388 -8 -38 -11 -677 -9 -2183 l3 -2130 22 -60 c67 -175 220 -306 393 -335 46 -8 684 -10 2180 -8 l2115 3 68 27 c86 35 141 73 205 143 60 66 106 156 122 240 8 44 10 633 8 2180 l-3 2120 -23 59 c-64 169 -213 300 -380 335 -82 17 -4248 14 -4319 -3z m827 -1296 c456 -55 721 -275 801 -663 37 -180 35 -372 -6 -532 -22 -88 -96 -231 -158 -305 -99 -121 -272 -232 -432 -278 -122 -35 -176 -44 -320 -48 l-140 -5 -3 -334 -2 -335 -235 0 -235 0 0 1239 0 1240 53 6 c194 24 541 31 677 15z m1990 -545 c168 -285 310 -517 315 -517 6 1 143 236 305 522 l294 521 31 -7 c16 -4 132 -7 258 -6 l227 1 0 -1235 0 -1234 -152 0 c-84 0 -197 -3 -250 -7 l-98 -6 -2 823 -3 822 -294 -526 c-162 -290 -297 -529 -301 -531 -4 -2 -142 217 -306 487 l-299 491 -3 -783 -2 -783 -98 6 c-53 4 -163 7 -244 7 l-148 0 0 1237 0 1236 133 -5 c72 -3 173 -2 222 2 50 4 95 6 100 5 6 -1 147 -235 315 -520z"/> <path d="M962 2883 l3 -488 104 -3 c153 -4 257 31 357 122 94 84 144 213 144 373 0 166 -41 284 -128 365 -93 87 -189 118 -370 118 l-112 0 2 -487z"/> </g> </svg> 