<svg version="1.0" xmlns="http://www.w3.org/2000/svg" width="682.667" height="682.667" viewBox="0 0 512 512"><path d="M39.3 1.4C20.7 5.9 4.8 22.1 1.1 40.2.3 44 0 107.9.2 258.5l.3 213 2.2 6C9.4 495 24.7 508.1 42 511c4.6.8 68.4 1 218 .8l211.5-.3 6.8-2.7c8.6-3.5 14.1-7.3 20.5-14.3 6-6.6 10.6-15.6 12.2-24 .8-4.4 1-63.3.8-218l-.3-212-2.3-5.9c-6.4-16.9-21.3-30-38-33.5C463-.6 46.4-.3 39.3 1.4zM122 131c45.6 5.5 72.1 27.5 80.1 66.3 3.7 18 3.5 37.2-.6 53.2-2.2 8.8-9.6 23.1-15.8 30.5-9.9 12.1-27.2 23.2-43.2 27.8-12.2 3.5-17.6 4.4-32 4.8l-14 .5-.3 33.4L96 381H49V133.1l5.3-.6c19.4-2.4 54.1-3.1 67.7-1.5zm199 54.5c16.8 28.5 31 51.7 31.5 51.7.6-.1 14.3-23.6 30.5-52.2l29.4-52.1 3.1.7c1.6.4 13.2.7 25.8.6l22.7-.1V381h-15.2c-8.4 0-19.7.3-25 .7l-9.8.6-.2-82.3-.3-82.2-29.4 52.6c-16.2 29-29.7 52.9-30.1 53.1-.4.2-14.2-21.7-30.6-48.7l-29.9-49.1-.3 78.3-.2 78.3-9.8-.6c-5.3-.4-16.3-.7-24.4-.7H244V133.7l13.3.5c7.2.3 17.3.2 22.2-.2 5-.4 9.5-.6 10-.5.6.1 14.7 23.5 31.5 52z"/><path d="m96.2 223.7.3 48.8 10.4.3c15.3.4 25.7-3.1 35.7-12.2 9.4-8.4 14.4-21.3 14.4-37.3 0-16.6-4.1-28.4-12.8-36.5-9.3-8.7-18.9-11.8-37-11.8H96l.2 48.7z"/></svg>